# Blender v2.93.1 OBJ File: ''
# www.blender.org
o Line13_Mesh.004
v 0.618516 0.179551 0.020684
v 0.618516 0.015637 0.020684
v 0.653763 0.015637 -0.000745
v 0.653763 0.179551 -0.000745
v 0.618563 0.015637 -0.022896
v 0.618563 0.179551 -0.022896
v 0.291349 0.179551 0.543210
v 0.291349 0.015637 0.543210
v 0.327302 0.015637 0.561175
v 0.327302 0.179551 0.561175
v 0.329252 0.015637 0.521668
v 0.329252 0.179551 0.521668
v -0.625624 0.015627 -0.001019
v -0.311456 0.015627 0.543136
v -0.311456 0.179541 0.543136
v -0.625624 0.179541 -0.001019
v 0.316880 0.015627 0.543136
v 0.316880 0.179541 0.543136
v 0.631048 0.015627 -0.001019
v 0.631048 0.179541 -0.001019
v 0.316880 0.015627 -0.545174
v 0.316880 0.179541 -0.545174
v 0.238338 0.015627 -0.409135
v 0.238338 0.179541 -0.409135
v 0.473964 0.015627 -0.001019
v 0.473964 0.179541 -0.001019
v 0.238338 0.015627 0.407097
v 0.238338 0.179541 0.407097
v -0.232914 0.015627 0.407097
v -0.232914 0.179541 0.407097
v -0.468540 0.015627 -0.001019
v -0.468540 0.179541 -0.001019
v -0.232914 0.015627 -0.409135
v -0.232914 0.179541 -0.409135
v -0.311456 0.015627 -0.545174
v -0.311456 0.179541 -0.545174
v 0.716001 0.001966 -0.001019
v 0.359357 0.015625 -0.618746
v 0.716001 0.015625 -0.001019
v 0.359357 0.001966 -0.618746
v -0.353933 0.015625 -0.618746
v -0.353933 0.001966 -0.618746
v -0.710577 0.015625 -0.001019
v -0.710577 0.001966 -0.001019
v -0.353932 0.015625 0.616708
v -0.353932 0.001966 0.616708
v 0.359357 0.015625 0.616708
v 0.359357 0.001966 0.616708
v 0.002712 0.015625 -0.001019
v -0.668178 0.179534 -0.001019
v -0.332733 0.179534 0.579989
v -0.332733 0.194119 0.579989
v -0.668178 0.194119 -0.001019
v 0.338157 0.179534 0.579989
v 0.338157 0.194119 0.579989
v 0.673602 0.179534 -0.001019
v 0.673602 0.194119 -0.001019
v 0.318174 0.179534 -0.594816
v 0.318174 0.194119 -0.594816
v 0.207453 0.179534 -0.403040
v 0.207453 0.194119 -0.403040
v 0.452159 0.179534 -0.001019
v 0.452159 0.194119 -0.001019
v 0.227436 0.179534 0.388213
v 0.227436 0.194119 0.388213
v -0.222011 0.179534 0.388213
v -0.222011 0.194119 0.388213
v -0.446735 0.179534 -0.001019
v -0.446735 0.194119 -0.001019
v -0.199940 0.179534 -0.410428
v -0.199940 0.194119 -0.410428
v -0.310662 0.179534 -0.602203
v -0.310662 0.194119 -0.602203
v -0.611327 0.179551 -0.025781
v -0.611327 0.015637 -0.025781
v -0.649173 0.015637 -0.001361
v -0.649173 0.179551 -0.001361
v -0.611841 0.015637 0.022880
v -0.611841 0.179551 0.022880
v -0.322289 0.179551 0.524541
v -0.322289 0.015637 0.524541
v -0.319394 0.015637 0.556616
v -0.319394 0.179551 0.556616
v -0.284655 0.015637 0.543170
v -0.284655 0.179551 0.543170
vt 0.500000 2.000757
vt 0.500000 -0.000000
vt 0.750000 -0.000000
vt 0.750000 2.000757
vt 1.000000 -0.000000
vt 1.000000 2.000757
vt 0.500000 2.000757
vt 0.500000 -0.000000
vt 0.750000 -0.000000
vt 0.750000 2.000757
vt 1.000000 -0.000000
vt 1.000000 2.000757
vt 13.987296 1.002259
vt 16.997099 1.002259
vt 16.997099 1.997135
vt 13.987296 1.997135
vt -14.998468 1.004423
vt -12.001064 1.003886
vt -12.001064 1.998762
vt -14.998468 1.999299
vt -8.996838 1.003350
vt -8.996838 1.998225
vt -5.999797 1.004299
vt -5.999797 1.999173
vt -4.968311 1.005247
vt -4.968311 2.000121
vt -1.974362 1.005247
vt -1.974362 2.000121
vt 1.034201 1.004042
vt 1.034201 1.998918
vt 4.005419 1.001048
vt 4.005419 1.995924
vt 7.000856 0.999257
vt 7.000856 1.994133
vt 10.001684 0.999257
vt 10.001684 1.994133
vt 11.002043 1.000758
vt 11.002043 1.995634
vt -0.521530 1.922786
vt -0.047018 1.998381
vt -0.521530 1.998162
vt -0.047018 1.923004
vt 0.500877 1.998831
vt 0.500877 1.923455
vt 0.975313 1.999064
vt 0.975313 1.923686
vt 1.449769 1.999336
vt 1.449769 1.923957
vt 1.997623 1.999607
vt 1.997623 1.924231
vt -0.995981 1.922786
vt -0.995981 1.998162
vt 0.496980 0.501013
vt 0.496980 -0.996670
vt 1.993813 -0.247828
vt 1.993813 1.249856
vt 0.496980 1.998697
vt -0.999853 1.249855
vt -0.999853 -0.247829
vt 0.665705 1.924881
vt 0.984709 1.925053
vt 0.984709 1.998364
vt 0.665705 1.998193
vt 1.353061 1.925191
vt 1.353061 1.998503
vt 1.672071 1.925158
vt 1.672071 1.998470
vt 1.998106 1.925158
vt 1.998106 1.998470
vt -0.994721 1.925152
vt -0.889424 1.925152
vt -0.889424 1.998461
vt -0.994721 1.998461
vt -0.668686 1.925152
vt -0.668686 1.998461
vt -0.454971 1.925161
vt -0.454971 1.998470
vt -0.208199 1.925293
vt -0.208199 1.998602
vt 0.005510 1.925417
vt 0.005510 1.998729
vt 0.230304 1.925417
vt 0.230304 1.998729
vt 0.335608 1.925149
vt 0.335608 1.998461
vt 0.000000 1.000000
vt 0.167545 0.600313
vt 0.167545 1.000000
vt 0.000000 0.600313
vt 0.167545 0.200627
vt 0.000000 0.200626
vt 0.167545 -0.199060
vt 0.000000 -0.199060
vt 0.167545 -0.598747
vt 0.000000 -0.598747
vt 0.167545 -0.998434
vt 0.000000 -0.998434
vt 3.994262 -3.994351
vt 4.993956 -3.994351
vt 4.993956 -2.307867
vt 3.994262 -2.307867
vt 4.993956 -0.621383
vt 3.994262 -0.621383
vt 4.993956 1.065101
vt 3.994262 1.065101
vt 4.993956 3.313746
vt 3.994262 3.313746
vt 4.993956 5.000230
vt 3.994262 5.000230
vt 0.500000 2.000757
vt 0.500000 -0.000000
vt 0.750000 -0.000000
vt 0.750000 2.000757
vt 1.000000 -0.000000
vt 1.000000 2.000757
vt 0.500000 2.000757
vt 0.500000 -0.000000
vt 0.750000 -0.000000
vt 0.750000 2.000757
vt 1.000000 -0.000000
vt 1.000000 2.000757
vn 0.5195 -0.0000 0.8545
vn 1.0000 0.0000 0.0077
vn 0.5326 0.0000 -0.8464
vn -0.4470 0.0000 0.8945
vn 0.5047 0.0000 0.8633
vn 0.9988 0.0000 0.0493
vn -0.8660 0.0000 0.5000
vn 0.0000 0.0000 1.0000
vn 0.8660 -0.0000 0.5000
vn 0.8660 0.0000 -0.5000
vn -0.8660 0.0000 -0.5000
vn 0.0000 0.0000 -1.0000
vn 1.0000 -0.0000 -0.0000
vn 0.5000 0.0000 -0.8660
vn -0.5000 0.0000 -0.8660
vn -1.0000 0.0000 0.0000
vn -0.5000 0.0000 0.8660
vn 0.5000 0.0000 0.8660
vn 0.0000 1.0000 0.0000
vn 0.8580 0.0000 -0.5136
vn -0.8542 -0.0000 0.5199
vn 0.8564 0.0000 0.5163
vn -0.8595 0.0000 -0.5111
vn -0.0000 -1.0000 -0.0000
vn -0.5422 0.0000 -0.8403
vn -1.0000 0.0000 -0.0014
vn -0.5446 0.0000 0.8387
vn -0.9960 0.0000 0.0899
vn -0.5276 0.0000 0.8495
vn 0.3610 0.0000 0.9326
s 1
f 1/1/1 2/2/1 3/3/2
f 3/3/2 4/4/2 1/1/1
f 4/4/2 3/3/2 5/5/3
f 5/5/3 6/6/3 4/4/2
f 7/7/4 8/8/4 9/9/5
f 9/9/5 10/10/5 7/7/4
f 10/10/5 9/9/5 11/11/6
f 11/11/6 12/12/6 10/10/5
f 13/13/7 14/14/7 15/15/7
f 13/13/7 15/15/7 16/16/7
f 14/17/8 17/18/8 18/19/8
f 14/17/8 18/19/8 15/20/8
f 17/18/9 19/21/9 20/22/9
f 17/18/9 20/22/9 18/19/9
f 19/21/10 21/23/10 22/24/10
f 19/21/10 22/24/10 20/22/10
f 21/23/11 23/25/11 24/26/11
f 21/23/11 24/26/11 22/24/11
f 23/25/7 25/27/7 26/28/7
f 23/25/7 26/28/7 24/26/7
f 25/27/11 27/29/11 28/30/11
f 25/27/11 28/30/11 26/28/11
f 27/29/12 29/31/12 30/32/12
f 27/29/12 30/32/12 28/30/12
f 29/31/10 31/33/10 32/34/10
f 29/31/10 32/34/10 30/32/10
f 31/33/9 33/35/9 34/36/9
f 31/33/9 34/36/9 32/34/9
f 33/35/10 35/37/10 36/38/10
f 33/35/10 36/38/10 34/36/10
f 35/37/11 13/13/11 16/16/11
f 35/37/11 16/16/11 36/38/11
f 37/39/13 38/40/14 39/41/13
f 37/39/13 40/42/14 38/40/14
f 40/42/14 41/43/15 38/40/14
f 40/42/14 42/44/15 41/43/15
f 42/44/15 43/45/16 41/43/15
f 42/44/15 44/46/16 43/45/16
f 44/46/16 45/47/17 43/45/16
f 44/46/16 46/48/17 45/47/17
f 46/48/17 47/49/18 45/47/17
f 46/48/17 48/50/18 47/49/18
f 48/51/18 39/41/13 47/52/18
f 48/51/18 37/39/13 39/41/13
f 49/53/19 39/54/19 38/55/19
f 49/53/19 38/55/19 41/56/19
f 49/53/19 41/56/19 43/57/19
f 49/53/19 43/57/19 45/58/19
f 49/53/19 45/58/19 47/59/19
f 49/53/19 47/59/19 39/54/19
f 50/60/7 51/61/7 52/62/7
f 50/60/7 52/62/7 53/63/7
f 51/61/8 54/64/8 55/65/8
f 51/61/8 55/65/8 52/62/8
f 54/64/9 56/66/9 57/67/9
f 54/64/9 57/67/9 55/65/9
f 56/66/20 58/68/20 59/69/20
f 56/66/20 59/69/20 57/67/20
f 58/70/11 60/71/11 61/72/11
f 58/70/11 61/72/11 59/73/11
f 60/71/21 62/74/21 63/75/21
f 60/71/21 63/75/21 61/72/21
f 62/74/11 64/76/11 65/77/11
f 62/74/11 65/77/11 63/75/11
f 64/76/12 66/78/12 67/79/12
f 64/76/12 67/79/12 65/77/12
f 66/78/10 68/80/10 69/81/10
f 66/78/10 69/81/10 67/79/10
f 68/80/22 70/82/22 71/83/22
f 68/80/22 71/83/22 69/81/22
f 70/82/10 72/84/10 73/85/10
f 70/82/10 73/85/10 71/83/10
f 72/84/23 50/60/23 53/63/23
f 72/84/23 53/63/23 73/85/23
f 70/86/24 50/87/24 72/88/24
f 68/89/24 50/87/24 70/86/24
f 68/89/24 51/90/24 50/87/24
f 66/91/24 51/90/24 68/89/24
f 66/91/24 54/92/24 51/90/24
f 64/93/24 54/92/24 66/91/24
f 64/93/24 56/94/24 54/92/24
f 62/95/24 56/94/24 64/93/24
f 62/95/24 58/96/24 56/94/24
f 60/97/24 58/96/24 62/95/24
f 71/98/19 73/99/19 53/100/19
f 69/101/19 71/98/19 53/100/19
f 69/101/19 53/100/19 52/102/19
f 67/103/19 69/101/19 52/102/19
f 67/103/19 52/102/19 55/104/19
f 65/105/19 67/103/19 55/104/19
f 65/105/19 55/104/19 57/106/19
f 63/107/19 65/105/19 57/106/19
f 63/107/19 57/106/19 59/108/19
f 61/109/19 63/107/19 59/108/19
f 74/110/25 75/111/25 76/112/26
f 76/112/26 77/113/26 74/110/25
f 77/113/26 76/112/26 78/114/27
f 78/114/27 79/115/27 77/113/26
f 80/116/28 81/117/28 82/118/29
f 82/118/29 83/119/29 80/116/28
f 83/119/29 82/118/29 84/120/30
f 84/120/30 85/121/30 83/119/29
