# Blender v2.93.1 OBJ File: ''
# www.blender.org
o Cylinder.001
v 0.000000 0.000164 -0.786646
v 0.681255 0.000164 -0.393323
v 0.681255 0.000164 0.393323
v -0.000000 0.000164 0.786646
v -0.681255 0.000164 0.393323
v -0.681255 0.000164 -0.393323
v 0.000000 0.369217 -0.037854
v 0.000000 0.044981 -0.786646
v 0.032783 0.369217 -0.018927
v 0.681255 0.044981 -0.393323
v 0.032783 0.369217 0.018927
v 0.681255 0.044981 0.393323
v -0.000000 0.369217 0.037854
v -0.000000 0.044981 0.786646
v -0.032783 0.369217 0.018927
v -0.681255 0.044981 0.393323
v -0.032783 0.369217 -0.018927
v -0.681255 0.044981 -0.393323
v 0.000000 0.287829 -0.037854
v 0.032783 0.287829 -0.018927
v 0.032783 0.287829 0.018927
v -0.000000 0.287829 0.037854
v -0.032783 0.287829 0.018927
v -0.032783 0.287829 -0.018927
v 0.608114 0.000164 -0.351095
v 0.000000 0.000164 -0.702189
v 0.608114 0.000164 0.351095
v -0.608114 0.000164 0.351095
v -0.000000 0.000164 0.702189
v -0.608114 0.000164 -0.351095
v 0.681255 0.044981 -0.393323
v 0.681255 0.044981 -0.393323
v 0.681255 0.044981 -0.393323
v 0.681255 0.044981 0.393323
v 0.681255 0.044981 0.393323
v 0.681255 0.044981 0.393323
v 0.681255 0.000164 -0.393323
v 0.681255 0.000164 -0.393323
v 0.681255 0.000164 0.393323
v 0.681255 0.000164 0.393323
v -0.000000 0.000164 0.786646
v 0.000000 0.369217 -0.037854
v 0.000000 0.369217 -0.037854
v 0.032783 0.369217 -0.018927
v 0.032783 0.369217 -0.018927
v 0.000000 0.044981 -0.786646
v 0.000000 0.044981 -0.786646
v 0.032783 0.369217 0.018927
v 0.032783 0.369217 0.018927
v -0.000000 0.369217 0.037854
v -0.000000 0.369217 0.037854
v -0.000000 0.044981 0.786646
v -0.000000 0.044981 0.786646
v -0.000000 0.044981 0.786646
v -0.681255 0.044981 -0.393323
v -0.681255 0.044981 0.393323
v -0.032783 0.369217 0.018927
v -0.032783 0.369217 0.018927
v -0.032783 0.369217 -0.018927
v -0.032783 0.369217 -0.018927
v 0.000000 0.000164 -0.786646
v 0.000000 0.000164 -0.786646
v -0.000000 0.000164 0.786646
v -0.681255 0.000164 0.393323
v -0.681255 0.000164 0.393323
v -0.681255 0.000164 0.393323
v -0.681255 0.000164 -0.393323
v -0.681255 0.000164 -0.393323
v -0.681255 0.000164 -0.393323
v 0.000000 0.044981 -0.786646
v -0.681255 0.044981 -0.393323
v -0.681255 0.044981 -0.393323
v -0.681255 0.044981 0.393323
v -0.681255 0.044981 0.393323
v 0.000000 0.287829 -0.037854
v 0.000000 0.287829 -0.037854
v 0.032783 0.287829 -0.018927
v 0.032783 0.287829 -0.018927
v 0.032783 0.287829 0.018927
v 0.032783 0.287829 0.018927
v -0.000000 0.287829 0.037854
v -0.000000 0.287829 0.037854
v -0.032783 0.287829 0.018927
v -0.032783 0.287829 0.018927
v -0.032783 0.287829 -0.018927
v -0.032783 0.287829 -0.018927
v 0.608114 0.000164 -0.351095
v 0.608114 0.000164 -0.351095
v 0.000000 0.000164 -0.702189
v 0.000000 0.000164 -0.702189
v 0.608114 0.000164 0.351095
v 0.608114 0.000164 0.351095
v -0.608114 0.000164 0.351095
v -0.608114 0.000164 0.351095
v -0.608114 0.000164 0.351095
v -0.000000 0.000164 0.702189
v -0.000000 0.000164 0.702189
v -0.608114 0.000164 -0.351095
v -0.608114 0.000164 -0.351095
v -0.608114 0.000164 -0.351095
vt 0.166667 0.129812
vt -0.000000 0.010146
vt 0.166667 0.010146
vt 0.666667 0.560719
vt 0.500000 0.500000
vt 0.666667 0.500000
vt 0.500000 0.560719
vt 0.333333 0.500000
vt 0.500000 0.500000
vt 0.333333 0.560719
vt 0.166667 0.500000
vt 0.333333 0.500000
vt 1.000000 0.129812
vt 0.833333 0.010146
vt 1.000000 0.010146
vt 0.833333 0.560719
vt 0.666667 0.500000
vt 0.833333 0.500000
vt 0.542154 0.370000
vt 0.564469 0.142884
vt 0.542154 0.130000
vt 0.935531 0.142884
vt 0.935531 0.357116
vt 0.957846 0.370000
vt 0.992312 0.023274
vt 0.906312 0.979909
vt 0.828208 0.023274
vt 0.828208 0.023274
vt 0.742208 0.979909
vt 0.664104 0.023274
vt 0.500000 0.023274
vt 0.586000 0.979909
vt 0.578103 0.979909
vt 0.500000 0.023274
vt 0.413999 0.979909
vt 0.335896 0.023274
vt 0.335896 0.023274
vt 0.249896 0.979909
vt 0.171792 0.023274
vt 0.171792 0.023274
vt 0.085792 0.979909
vt 0.007688 0.023274
vt 0.382107 0.244225
vt 0.382107 0.255775
vt 0.377194 0.261549
vt 0.897161 0.968255
vt 0.972613 0.035012
vt 0.829427 0.035012
vt 0.736753 0.968255
vt 0.812205 0.035012
vt 0.669019 0.035012
vt 0.508611 0.035012
vt 0.584064 0.968255
vt 0.651797 0.035012
vt 0.415936 0.968255
vt 0.491389 0.035012
vt 0.348203 0.035012
vt 0.255528 0.968255
vt 0.330981 0.035012
vt 0.187795 0.035012
vt 0.102839 0.968255
vt 0.027387 0.035012
vt 0.095120 0.968255
vt 0.250000 0.238451
vt 0.239998 0.244225
vt 0.250000 0.261549
vt -0.000000 0.129812
vt 0.500000 0.560719
vt 0.333333 0.560719
vt 0.166667 0.560719
vt 0.833333 0.129812
vt 0.666667 0.560719
vt 0.564469 0.357116
vt 0.750000 0.464233
vt 0.564469 0.357116
vt 0.542154 0.370000
vt 0.750000 0.010000
vt 0.542154 0.130000
vt 0.564469 0.142884
vt 0.750000 0.035767
vt 0.750000 0.490000
vt 0.957846 0.130000
vt 0.914208 0.979909
vt 0.750104 0.979909
vt 0.664104 0.023274
vt 0.421896 0.979909
vt 0.257792 0.979909
vt 0.093688 0.979909
vt 0.372281 0.255775
vt 0.372281 0.244225
vt 0.377194 0.238451
vt 0.904880 0.968255
vt 0.744472 0.968255
vt 0.576344 0.968255
vt 0.423655 0.968255
vt 0.263247 0.968255
vt 0.170573 0.035012
vt 0.239998 0.255775
vt 0.260002 0.255775
vt 0.260002 0.244225
vn -0.5000 0.0000 -0.8660
vn 0.5000 0.0000 0.8660
vn -0.5000 0.0000 0.8660
vn -1.0000 0.0000 0.0000
vn 0.5000 0.0000 -0.8660
vn 1.0000 0.0000 0.0000
vn 0.0000 -1.0000 0.0000
vn 0.2236 0.8944 -0.3873
vn 0.4472 0.8944 0.0000
vn 0.2236 0.8944 0.3873
vn -0.2236 0.8944 0.3873
vn -0.4472 0.8944 0.0000
vn -0.2236 0.8944 -0.3873
vn 0.0000 1.0000 0.0000
vn -0.2236 -0.8944 0.3873
vn -0.4472 -0.8944 0.0000
vn -0.2236 -0.8944 -0.3873
vn 0.2236 -0.8944 -0.3873
vn 0.4472 -0.8944 0.0000
vn 0.2236 -0.8944 0.3873
s 1
f 71/1/1 62/2/1 67/3/1
f 35/4/2 41/5/2 40/6/2
f 53/7/3 64/8/3 63/9/3
f 74/10/4 69/11/4 66/12/4
f 46/13/5 37/14/5 61/15/5
f 31/16/6 39/17/6 38/18/6
f 68/19/7 93/20/7 65/21/7
f 91/22/7 88/23/7 2/24/7
f 47/25/8 44/26/8 33/27/8
f 10/28/9 48/29/9 36/30/9
f 54/31/10 49/32/10 50/33/10
f 14/34/11 58/35/11 16/36/11
f 56/37/12 59/38/12 55/39/12
f 18/40/13 43/41/13 8/42/13
f 11/43/14 9/44/14 7/45/14
f 77/46/15 90/47/15 87/48/15
f 79/49/16 25/50/16 92/51/16
f 97/52/17 80/53/17 27/54/17
f 83/55/18 29/56/18 95/57/18
f 85/58/19 28/59/19 100/60/19
f 86/61/20 26/62/20 76/63/20
f 22/64/7 23/65/7 19/66/7
f 71/1/1 70/67/1 62/2/1
f 35/4/2 52/68/2 41/5/2
f 53/7/3 73/69/3 64/8/3
f 74/10/4 72/70/4 69/11/4
f 46/13/5 32/71/5 37/14/5
f 31/16/6 34/72/6 39/17/6
f 68/19/7 98/73/7 93/20/7
f 89/74/7 99/75/7 6/76/7
f 4/77/7 5/78/7 94/79/7
f 4/77/7 94/79/7 96/80/7
f 89/74/7 6/76/7 1/81/7
f 88/23/7 89/74/7 1/81/7
f 3/82/7 4/77/7 96/80/7
f 3/82/7 96/80/7 91/22/7
f 88/23/7 1/81/7 2/24/7
f 3/82/7 91/22/7 2/24/7
f 47/25/8 42/83/8 44/26/8
f 10/28/9 45/84/9 48/29/9
f 54/31/10 12/85/10 49/32/10
f 14/34/11 51/86/11 58/35/11
f 56/37/12 57/87/12 59/38/12
f 18/40/13 60/88/13 43/41/13
f 7/45/14 17/89/14 15/90/14
f 15/90/14 13/91/14 7/45/14
f 13/91/14 11/43/14 7/45/14
f 77/46/15 75/92/15 90/47/15
f 79/49/16 78/93/16 25/50/16
f 97/52/17 81/94/17 80/53/17
f 83/55/18 82/95/18 29/56/18
f 85/58/19 84/96/19 28/59/19
f 86/61/20 30/97/20 26/62/20
f 23/65/7 24/98/7 19/66/7
f 19/66/7 20/99/7 21/100/7
f 21/100/7 22/64/7 19/66/7
